<?xml version="1.0" encoding="UTF-8" standalone="no"?>
<svg
   xmlns:dc="http://purl.org/dc/elements/1.1/"
   xmlns:cc="http://creativecommons.org/ns#"
   xmlns:rdf="http://www.w3.org/1999/02/22-rdf-syntax-ns#"
   xmlns:svg="http://www.w3.org/2000/svg"
   xmlns="http://www.w3.org/2000/svg"
   xml:space="preserve"
   style="enable-background:new 0 0 267.9 267.9;"
   viewBox="0 0 267.9 267.9"
   y="0px"
   x="0px"
   id="Слой_1"
   version="1.1"><metadata
   id="metadata17"><rdf:RDF><cc:Work
       rdf:about=""><dc:format>image/svg+xml</dc:format><dc:type
         rdf:resource="http://purl.org/dc/dcmitype/StillImage" /></cc:Work></rdf:RDF></metadata><defs
   id="defs15" />
<style
   id="style2"
   type="text/css">
	.st0{fill:#333033;}
	.st1{fill-rule:evenodd;clip-rule:evenodd;fill:#FFFFFF;}
	.st2{fill:#FFFFFF;}
</style>
<circle
   id="circle4"
   r="133.9"
   cy="133.9"
   cx="133.9"
   class="st0" />
<g
   id="g10">
	<path
   id="path6"
   d="M133.9,48.5c-47.1,0-85.5,38.3-85.5,85.5c0,16.6,4.7,32.5,13.6,46.3l-13,28.6c-1.2,2.6-0.8,5.7,1.1,7.9   c1.4,1.7,3.5,2.6,5.7,2.6c0.7,0,1.3-0.1,2-0.3l35.8-9.8c12.3,6.6,26.2,10.1,40.3,10.1c47.1,0,85.5-38.3,85.5-85.5   C219.4,86.8,181.1,48.5,133.9,48.5z M133.9,204.5c-12.5,0-24.8-3.3-35.5-9.6c-1.2-0.7-2.5-1-3.8-1c-0.7,0-1.3,0.1-2,0.3l-23.4,6.4   l8.1-17.9c1.1-2.4,0.8-5.3-0.7-7.5c-8.7-12.1-13.3-26.3-13.3-41.2c0-38.9,31.6-70.5,70.5-70.5c38.9,0,70.5,31.6,70.5,70.5   C204.5,172.8,172.8,204.5,133.9,204.5z"
   class="st1" />
	<path
   id="path8"
   d="M166.8,146.7c-3.6-2.1-8.2-4.5-12.5-2.8c-3.2,1.3-5.3,6.4-7.4,9c-1.1,1.3-2.4,1.5-4,0.9   c-12.1-4.8-21.4-12.9-28.1-24.1c-1.1-1.7-0.9-3.1,0.4-4.7c2-2.4,4.6-5.1,5.1-8.3c0.5-3.2-1-7-2.3-9.8c-1.7-3.7-3.6-8.9-7.3-10.9   c-3.4-1.9-7.8-0.8-10.8,1.6c-5.2,4.2-7.7,10.8-7.6,17.4c0,1.9,0.3,3.7,0.7,5.5c1,4.3,3,8.3,5.3,12.2c1.7,2.9,3.5,5.7,5.5,8.4   c6.5,8.8,14.6,16.5,23.9,22.2c4.7,2.9,9.7,5.4,14.9,7.1c5.8,1.9,11.1,3.9,17.4,2.7c6.6-1.3,13.1-5.3,15.8-11.7c0.8-1.9,1.2-4,0.7-6   C175.7,151.2,170.1,148.7,166.8,146.7z"
   class="st1" />
</g>
</svg>