<?xml version="1.0" encoding="UTF-8" standalone="no"?>
<svg
   xmlns:dc="http://purl.org/dc/elements/1.1/"
   xmlns:cc="http://creativecommons.org/ns#"
   xmlns:rdf="http://www.w3.org/1999/02/22-rdf-syntax-ns#"
   xmlns:svg="http://www.w3.org/2000/svg"
   xmlns="http://www.w3.org/2000/svg"
   xml:space="preserve"
   style="enable-background:new 0 0 267.9 267.9;"
   viewBox="0 0 267.9 267.9"
   y="0px"
   x="0px"
   id="Слой_1"
   version="1.1"><metadata
   id="metadata17"><rdf:RDF><cc:Work
       rdf:about=""><dc:format>image/svg+xml</dc:format><dc:type
         rdf:resource="http://purl.org/dc/dcmitype/StillImage" /></cc:Work></rdf:RDF></metadata><defs
   id="defs15" />
<style
   id="style2"
   type="text/css">
	.st0{fill:#333033;}
	.st1{fill-rule:evenodd;clip-rule:evenodd;fill:#FFFFFF;}
	.st2{fill:#FFFFFF;}
</style>
<g
   id="g10">
	<circle
   id="circle4"
   r="133.9"
   cy="133.9"
   cx="133.9"
   class="st0" />
	<g
   id="g8">
		<path
   id="path6"
   d="M218.7,112.5c0-20.1-16.3-36.4-36.4-36.4H88.1c-20.1,0-36.4,16.3-36.4,36.4v44.2c0,20.1,16.3,36.4,36.4,36.4    h94.3c20.1,0,36.4-16.3,36.4-36.4V112.5z M159.2,136.8l-37.6,20.6c-1.6,0.9-3.1-0.3-3.1-2.2v-42.3c0-1.9,1.5-3.1,3.2-2.1    l37.9,21.7C161.2,133.5,160.9,135.9,159.2,136.8z"
   class="st2" />
	</g>
</g>
</svg>