<?xml version="1.0" encoding="UTF-8" standalone="no"?>
<svg
   xmlns:dc="http://purl.org/dc/elements/1.1/"
   xmlns:cc="http://creativecommons.org/ns#"
   xmlns:rdf="http://www.w3.org/1999/02/22-rdf-syntax-ns#"
   xmlns:svg="http://www.w3.org/2000/svg"
   xmlns="http://www.w3.org/2000/svg"
   xml:space="preserve"
   style="enable-background:new 0 0 267.9 267.9;"
   viewBox="0 0 267.9 267.9"
   y="0px"
   x="0px"
   id="Слой_1"
   version="1.1"><metadata
   id="metadata23"><rdf:RDF><cc:Work
       rdf:about=""><dc:format>image/svg+xml</dc:format><dc:type
         rdf:resource="http://purl.org/dc/dcmitype/StillImage" /></cc:Work></rdf:RDF></metadata><defs
   id="defs21" />
<style
   id="style2"
   type="text/css">
	.st0{fill:#333033;}
	.st1{fill-rule:evenodd;clip-rule:evenodd;fill:#FFFFFF;}
	.st2{fill:#FFFFFF;}
</style>
<g
   id="g16">
	<circle
   id="circle4"
   r="133.9"
   cy="133.9"
   cx="133.9"
   class="st0" />
	<g
   id="g14">
		<circle
   id="circle6"
   r="10.4"
   cy="87.3"
   cx="181.4"
   class="st2" />
		<path
   id="path8"
   d="M135.1,90.2c-24.1,0-43.7,19.6-43.7,43.7s19.6,43.7,43.7,43.7s43.7-19.6,43.7-43.7S159.2,90.2,135.1,90.2z     M135.1,161.9c-15.4,0-28-12.6-28-28c0-15.4,12.6-28,28-28s28,12.6,28,28C163.1,149.4,150.5,161.9,135.1,161.9z"
   class="st2" />
		<g
   id="g12">
			<path
   id="path10"
   d="M169.8,222.7H98.9c-29.4,0-53.3-23.9-53.3-53.3V98.5c0-29.4,23.9-53.3,53.3-53.3h70.9     c29.4,0,53.3,23.9,53.3,53.3v70.9C223.1,198.8,199.2,222.7,169.8,222.7z M98.9,61.9c-20.2,0-36.6,16.4-36.6,36.6v70.9     c0,20.2,16.4,36.6,36.6,36.6h70.9c20.2,0,36.6-16.4,36.6-36.6V98.5c0-20.2-16.4-36.6-36.6-36.6H98.9z"
   class="st2" />
		</g>
	</g>
</g>
</svg>