<?xml version="1.0" encoding="UTF-8" standalone="no"?>
<svg
   xmlns:dc="http://purl.org/dc/elements/1.1/"
   xmlns:cc="http://creativecommons.org/ns#"
   xmlns:rdf="http://www.w3.org/1999/02/22-rdf-syntax-ns#"
   xmlns:svg="http://www.w3.org/2000/svg"
   xmlns="http://www.w3.org/2000/svg"
   xml:space="preserve"
   style="enable-background:new 0 0 267.9 267.9;"
   viewBox="0 0 267.9 267.9"
   y="0px"
   x="0px"
   id="Слой_1"
   version="1.1"><metadata
   id="metadata15"><rdf:RDF><cc:Work
       rdf:about=""><dc:format>image/svg+xml</dc:format><dc:type
         rdf:resource="http://purl.org/dc/dcmitype/StillImage" /></cc:Work></rdf:RDF></metadata><defs
   id="defs13" />
<style
   id="style2"
   type="text/css">
	.st0{fill:#333033;}
	.st1{fill-rule:evenodd;clip-rule:evenodd;fill:#FFFFFF;}
	.st2{fill:#FFFFFF;}
</style>
<g
   id="g8">
	<circle
   id="circle4"
   r="133.9"
   cy="133.9"
   cx="133.9"
   class="st0" />
	<path
   id="path6"
   d="M111.7,134.6v82c0,1.2,1,2.1,2.1,2.1h30.5c1.2,0,2.1-1,2.1-2.1v-83.4h22.1c1.1,0,2-0.9,2.1-2l2.1-25.1   c0.1-1.2-0.9-2.3-2.1-2.3h-24.2V86.1c0-4.2,3.4-7.6,7.6-7.6h17c1.2,0,2.1-1,2.1-2.1V51.2c0-1.2-1-2.1-2.1-2.1h-28.8   c-16.9,0-30.6,13.7-30.6,30.6v24.2H96.5c-1.2,0-2.1,1-2.1,2.1v25.1c0,1.2,1,2.1,2.1,2.1h15.2V134.6z"
   class="st1" />
</g>
</svg>